<svg xmlns="http://www.w3.org/2000/svg" width="100" height="40" viewBox="0 0 100 40" fill="none">
  <g clip-path="url(#clip0_70_3829)">
    <path d="M52.047 37.7837H46.334V29.4521H47.9833V32.1666H50.3976V29.4521H52.047V37.7837ZM50.3976 36.3492V33.5759H47.9833V36.3492H50.3976ZM55.1425 39.4994H53.4932V29.123H55.1425V32.8952H56.5768V34.4464H55.1425V39.4994Z" fill="#01163A"/>
    <path d="M66.4491 39.4055H57.9393V35.7391H61.3576V34.9165H56.9951V33.5064H67.3933V34.9165H63.0308V35.7391H66.4491V39.4055ZM64.3216 29.0879C65.0388 29.0879 65.6142 29.26 66.0487 29.6049C66.4832 29.9499 66.7001 30.4275 66.7001 31.0386C66.7001 31.6497 66.4832 32.1273 66.0487 32.4723C65.6142 32.8172 65.0388 32.9893 64.3216 32.9893H60.0668C59.3496 32.9893 58.7742 32.8172 58.3397 32.4723C57.9052 32.1273 57.6883 31.6497 57.6883 31.0386C57.6883 30.4275 57.9052 29.9499 58.3397 29.6049C58.7742 29.26 59.3496 29.0879 60.0668 29.0879H64.3216ZM64.1424 31.5792C64.4292 31.5792 64.652 31.5322 64.8117 31.4381C64.9713 31.3441 65.0507 31.2107 65.0507 31.0386C65.0507 30.8665 64.9713 30.7331 64.8117 30.6391C64.652 30.5451 64.4292 30.498 64.1424 30.498H60.246C59.9592 30.498 59.7364 30.5492 59.5767 30.6508C59.4171 30.7524 59.3377 30.8816 59.3377 31.0386C59.3377 31.2107 59.4171 31.3441 59.5767 31.4381C59.7364 31.5322 59.9592 31.5792 60.246 31.5792H64.1424ZM64.7997 37.9954V37.1258H59.5887V37.9954H64.7997Z" fill="#01163A"/>
    <path d="M78.3894 38.8054H67.9912V37.3717H78.3894V38.8054ZM77.6245 36.0321H68.9593V29.3926H77.4213V30.8262H70.6087V32.0014H77.3018V33.4115H70.6087V34.5984H77.6245V36.0321Z" fill="#01163A"/>
    <path d="M84.2575 37.8533H79.3811V32.8707H82.0583V30.9318H79.3691V29.4981H83.6599V34.2809H80.9826V36.4196H84.2575V37.8533ZM86.7674 39.1929H85.1658V34.1869H84.0662V32.6357H85.1658V29.2396H86.7674V39.1929ZM89.1458 39.4867H87.5204V29.1221H89.1458V39.4867Z" fill="#01163A"/>
    <path d="M96.2096 37.9953C95.8109 37.5093 95.4446 37.0535 95.11 36.6262C94.7753 36.199 94.4569 35.786 94.1538 35.3865C94.0736 35.2849 94.0002 35.185 93.9327 35.0868C93.8653 34.9886 93.803 34.8854 93.7475 34.7754C93.628 34.9945 93.4922 35.1985 93.3411 35.3865C93.0304 35.786 92.6718 36.2284 92.2654 36.7144C91.8591 37.2004 91.4527 37.6822 91.0463 38.1598L89.9229 36.9964C90.3932 36.4483 90.8389 35.9019 91.2615 35.3571C91.6841 34.8123 92.0742 34.2894 92.4328 33.7883C92.5839 33.5768 92.6991 33.3418 92.7794 33.0832C92.8588 32.8247 92.8989 32.5351 92.8989 32.2136V31.0033H90.5444V29.5696H96.843V31.0033H94.5722V32.2136C94.5722 32.5351 94.6123 32.8247 94.6917 33.0832C94.7711 33.3418 94.8829 33.5768 95.0263 33.7883C95.3687 34.2978 95.7195 34.8065 96.0781 35.316C96.4367 35.8255 96.843 36.3501 97.2972 36.8906L96.2096 37.9953ZM99.7234 39.4994H98.0741V33.7648H95.9944V32.2371H98.0741V29.123H99.7234V39.4994Z" fill="#01163A"/>
    <path d="M21.9727 24.0026L32.6269 0.5H38.0907L48.7791 24.0026H42.9739L34.2319 3.25316H36.4174L27.6413 24.0026H21.9727ZM27.2998 18.9663L28.7682 14.8366H41.0616L42.5641 18.9663H27.2998Z" fill="#01163A"/>
    <path d="M73.0566 24.0026V0.5H77.6325L87.8087 17.0861H85.3842L95.3897 0.5H99.9314L99.9997 24.0026H94.8091L94.775 8.323H95.7311L87.7404 21.518H85.2476L77.0861 8.323H78.2472V24.0026H73.0566Z" fill="#01163A"/>
    <path d="M0 24.0026V0.5H11.6787C14.6838 0.5 16.9427 1.05986 18.4572 2.17876C19.9708 3.29848 20.728 4.77579 20.728 6.61067C20.728 7.84204 20.4207 8.91056 19.806 9.81709C19.1914 10.7236 18.3488 11.4237 17.2791 11.9155C16.2085 12.4082 14.9792 12.6542 13.591 12.6542L14.2399 11.2776C15.7424 11.2776 17.0742 11.5185 18.2352 11.9995C19.3963 12.4813 20.3012 13.1914 20.95 14.1315C21.5988 15.0716 21.9232 16.2249 21.9232 17.5897C21.9232 19.6042 21.1148 21.1772 19.4987 22.307C17.8818 23.4377 15.5033 24.0026 12.3617 24.0026H0ZM5.49788 19.9064H11.9519C13.3861 19.9064 14.4729 19.6773 15.2131 19.2181C15.9524 18.7598 16.3229 18.0262 16.3229 17.0189C16.3229 16.0117 15.9524 15.3016 15.2131 14.8198C14.4729 14.3388 13.3861 14.0979 11.9519 14.0979H5.0881V10.1361H10.9958C12.3386 10.1361 13.3691 9.9069 14.0862 9.44776C14.8033 8.98946 15.1619 8.28942 15.1619 7.34932C15.1619 6.40922 14.8033 5.74359 14.0862 5.28445C13.3691 4.82615 12.3386 4.59616 10.9958 4.59616H5.49788V19.9064Z" fill="#01163A"/>
    <path d="M69.8501 13.6287V0.5H64.3864V13.46C64.3864 13.5171 64.3846 13.5725 64.3838 13.6287H69.8501Z" fill="#00CAE9"/>
    <path d="M69.8501 13.6287V0.5L64.3864 5.53627V13.46C64.3864 13.5171 64.3846 13.5725 64.3838 13.6287H69.8501Z" fill="#0080FF"/>
    <path d="M64.3838 13.6292H69.8501V1.33984L64.3864 13.4269" fill="#005CFF"/>
    <path d="M64.296 15.0397C64.1193 16.4742 63.6831 17.5595 62.9864 18.2948C62.0525 19.2802 60.7437 19.7721 59.0594 19.7721C57.375 19.7721 56.0654 19.2802 55.1323 18.2948C54.1984 17.3102 53.7322 15.6986 53.7322 13.46V0.5H48.2002V13.6614C48.2002 17.1088 49.1564 19.7612 51.0687 21.6187C52.981 23.4771 55.6326 24.4055 59.0252 24.4055C62.4179 24.4055 65.0695 23.4771 66.9818 21.6187C68.6311 20.0172 69.5677 17.8239 69.7956 15.0397H64.2969H64.296Z" fill="#01163A"/>
  </g>
  <defs>
    <clipPath id="clip0_70_3829">
      <rect width="100" height="39" fill="white" transform="translate(0 0.5)"/>
    </clipPath>
  </defs>
</svg>